<svg width="44" height="44" viewBox="0 0 44 44" fill="none" xmlns="http://www.w3.org/2000/svg">
<g clip-path="url(#clip0_268_487)">
<path d="M9.75133 26.5897L8.21975 32.3073L2.62187 32.4257C0.948922 29.3227 0 25.7726 0 21.9999C0 18.3518 0.887219 14.9115 2.45988 11.8823H2.46108L7.44477 12.796L9.62792 17.7498C9.17099 19.0819 8.92195 20.5119 8.92195 21.9999C8.92212 23.6149 9.21465 25.1622 9.75133 26.5897Z" fill="#FBBB00"/>
<path d="M43.6156 17.8901C43.8683 19.221 44 20.5954 44 22C44 23.5751 43.8344 25.1115 43.5189 26.5935C42.448 31.6365 39.6496 36.0401 35.773 39.1564L35.7718 39.1552L29.4946 38.8349L28.6062 33.2889C31.1785 31.7804 33.1887 29.4196 34.2477 26.5935H22.4837V17.8901H34.4193H43.6156Z" fill="#518EF8"/>
<path d="M35.7718 39.1552L35.773 39.1564C32.0028 42.1868 27.2135 44 22 44C13.6219 44 6.33774 39.3172 2.62189 32.4259L9.75135 26.5898C11.6092 31.5483 16.3924 35.078 22 35.078C24.4103 35.078 26.6684 34.4264 28.606 33.2889L35.7718 39.1552Z" fill="#28B446"/>
<path d="M36.0425 5.06481L28.9155 10.8996C26.9101 9.64614 24.5396 8.92203 22 8.92203C16.2655 8.92203 11.3928 12.6136 9.628 17.7499L2.46107 11.8824H2.45987C6.12132 4.82307 13.4973 0 22 0C27.338 0 32.2324 1.90145 36.0425 5.06481Z" fill="#F14336"/>
</g>
<defs>
<clipPath id="clip0_268_487">
<rect width="44" height="44" fill="white"/>
</clipPath>
</defs>
</svg>
